<svg width="28" height="24" viewBox="0 0 28 24" fill="none" xmlns="http://www.w3.org/2000/svg">
<ellipse cx="13.9467" cy="12" rx="13.12" ry="12" fill="white"/>
<g clip-path="url(#clip0)">
<path d="M11 5.5C12.6 5.9 13.6667 7.66667 14 8.5L15 6.5L17.5 5H20.5C21.3334 5.5 23.2 6.9 24 8.5C24.8 10.1 23.6667 12.5 23 13.5L14 21.5L6.50003 15.5C5.6667 14.3333 4.00004 11.8 4.00004 11C4.00004 10 3.50004 7.5 5.50004 6C7.50004 4.5 9.00004 5 11 5.5Z" fill="#F7931E"/>
<path d="M23.2846 5.90123C22.2061 4.78193 20.7099 4.16553 19.0717 4.16553C16.7676 4.16553 15.3089 5.42412 14.491 6.47998C14.2788 6.75397 14.0982 7.02869 13.9467 7.28721C13.7951 7.02869 13.6146 6.75397 13.4024 6.47998C12.5844 5.42412 11.1257 4.16553 8.82167 4.16553C7.18346 4.16553 5.68726 4.78197 4.60871 5.90127C3.57995 6.969 3.01334 8.399 3.01334 9.92783C3.01334 11.592 3.7237 13.1399 5.2489 14.7989C6.61203 16.2817 8.57306 17.8102 10.8439 19.5801C11.6901 20.2396 12.5651 20.9216 13.4967 21.6671L13.5247 21.6896C13.6455 21.7863 13.7961 21.8346 13.9467 21.8346C14.0973 21.8346 14.2478 21.7862 14.3686 21.6896L14.3966 21.6671C15.3282 20.9216 16.2033 20.2396 17.0496 19.58C19.3203 17.8102 21.2813 16.2818 22.6444 14.7989C24.1696 13.1398 24.88 11.592 24.88 9.92783C24.88 8.399 24.3134 6.969 23.2846 5.90123ZM16.2185 18.6881C15.489 19.2566 14.7383 19.8417 13.9467 20.4712C13.1551 19.8418 12.4043 19.2567 11.6748 18.688C7.23057 15.2242 4.29459 12.9359 4.29459 9.92783C4.29459 8.68447 4.74751 7.52963 5.56994 6.67607C6.40182 5.81283 7.55661 5.3374 8.82167 5.3374C10.5782 5.3374 11.7137 6.32717 12.3569 7.15748C12.9338 7.90217 13.2349 8.65287 13.3376 8.94104C13.4235 9.18225 13.6693 9.34549 13.9467 9.34549C14.224 9.34549 14.4699 9.18225 14.5558 8.94104C14.6584 8.65287 14.9595 7.90217 15.5364 7.15744C16.1796 6.32717 17.3151 5.3374 19.0717 5.3374C20.3367 5.3374 21.4915 5.81283 22.3234 6.67607C23.1458 7.52963 23.5988 8.68447 23.5988 9.92783C23.5988 12.9359 20.6628 15.2242 16.2185 18.6881Z" fill="#F7931E"/>
</g>
<defs>
<clipPath id="clip0">
<rect width="21.8667" height="20" fill="white" transform="translate(3.01334 3)"/>
</clipPath>
</defs>
</svg>
