<svg width="27" height="24" viewBox="0 0 27 24" fill="none" xmlns="http://www.w3.org/2000/svg">
<ellipse cx="13.12" cy="12" rx="13.12" ry="12" fill="white"/>
<path d="M19.6667 8.66666H17.1667V5.33333H5.50001C4.58334 5.33333 3.83334 6.08333 3.83334 6.99999V16.1667H5.50001C5.50001 17.55 6.61668 18.6667 8.00001 18.6667C9.38334 18.6667 10.5 17.55 10.5 16.1667H15.5C15.5 17.55 16.6167 18.6667 18 18.6667C19.3833 18.6667 20.5 17.55 20.5 16.1667H22.1667V12L19.6667 8.66666ZM8.00001 17.4167C7.30834 17.4167 6.75001 16.8583 6.75001 16.1667C6.75001 15.475 7.30834 14.9167 8.00001 14.9167C8.69168 14.9167 9.25001 15.475 9.25001 16.1667C9.25001 16.8583 8.69168 17.4167 8.00001 17.4167ZM19.25 9.91666L20.8833 12H17.1667V9.91666H19.25ZM18 17.4167C17.3083 17.4167 16.75 16.8583 16.75 16.1667C16.75 15.475 17.3083 14.9167 18 14.9167C18.6917 14.9167 19.25 15.475 19.25 16.1667C19.25 16.8583 18.6917 17.4167 18 17.4167Z" fill="#F7931E"/>
</svg>
